<?xml version="1.0" standalone="no"?>
<svg version="1.0" xmlns="http://www.w3.org/2000/svg"
 width="300.000000pt" height="58.000000pt" viewBox="0 0 300.000000 58.000000"
 preserveAspectRatio="xMidYMid meet">
<metadata>
Created by potrace 1.10, written by Peter Selinger 2001-2011
</metadata>
  <defs>
    <linearGradient id="gradient1" x1="0" y1="0" x2="0" y2="1">
      <stop offset="0%" stop-color="#33FFCC"/>  <!-- Bright green-blue -->
      <stop offset="100%" stop-color="#0033CC"/> <!-- Deep blue -->
    </linearGradient>
  </defs>
<g transform="translate(0.000000,58.000000) scale(0.100000,-0.100000)"
fill="url(#gradient1)" stroke="none">
<path d="M94 510 c-12 -5 -25 -14 -30 -21 -4 -8 -3 -10 4 -5 9 5 12 -52 14
-211 3 -210 4 -218 23 -218 19 0 20 7 20 104 l0 104 69 0 69 0 1 -104 c1 -100
2 -104 24 -107 l22 -3 0 230 0 231 -26 0 -26 0 3 -102 3 -103 -70 0 -69 0 0
102 c-1 56 -3 104 -5 106 -3 3 -15 1 -26 -3z"/>
<path d="M1051 510 c-47 -20 -50 -34 -51 -223 l0 -179 30 -30 c29 -28 35 -30
90 -26 69 5 97 24 106 74 8 45 0 64 -25 57 -15 -4 -21 -13 -21 -33 0 -34 -28
-60 -66 -60 -62 0 -64 8 -66 194 -2 155 0 169 17 182 27 20 79 17 98 -4 11
-12 17 -36 17 -66 0 -43 2 -47 23 -44 20 3 22 8 22 60 -1 76 -22 100 -97 105
-29 1 -64 -2 -77 -7z"/>
<path d="M1501 507 c-44 -26 -50 -52 -51 -215 0 -219 17 -249 139 -239 44 3
59 9 78 31 22 26 23 33 23 205 0 177 0 178 -25 201 -31 29 -126 39 -164 17z
m120 -37 c18 -10 19 -23 19 -185 0 -194 0 -195 -71 -195 -64 0 -69 14 -69 193
0 135 3 163 17 179 18 20 73 24 104 8z"/>
<path d="M617 478 c-3 -18 -26 -120 -50 -225 -24 -106 -41 -195 -39 -198 3 -3
13 -5 23 -5 18 0 24 11 35 72 l6 38 69 0 c67 0 69 -1 75 -27 13 -63 21 -76 42
-80 12 -1 22 -1 22 1 0 2 -22 103 -50 225 -27 122 -50 223 -50 226 0 3 -17 5
-39 5 -36 0 -39 -2 -44 -32z m53 -20 c0 -21 28 -161 45 -230 l7 -28 -62 0
c-54 0 -61 2 -56 18 12 36 45 200 48 230 3 36 18 44 18 10z"/>
<path d="M1932 283 c3 -226 3 -226 26 -229 22 -4 22 -2 22 105 l0 108 58 -1
c51 -1 57 1 57 19 0 18 -6 20 -57 17 l-58 -4 0 86 0 86 75 0 c68 0 75 2 75 20
0 19 -7 20 -100 20 l-100 0 2 -227z"/>
<path d="M2327 282 l2 -227 23 0 c22 0 23 3 23 70 l0 70 35 1 c19 1 45 2 58 3
13 0 34 12 47 26 23 22 25 32 25 119 0 146 -17 166 -143 166 l-72 0 2 -228z
m144 178 c17 -9 19 -22 19 -104 0 -108 -7 -119 -73 -120 l-42 -1 -3 118 -3
117 41 0 c23 0 50 -5 61 -10z"/>
<path d="M2710 490 c0 -17 7 -20 50 -20 l50 0 0 -209 c0 -206 0 -208 21 -207
21 1 22 3 20 209 l-1 207 50 0 c43 0 50 3 50 20 0 19 -7 20 -120 20 -113 0
-120 -1 -120 -20z"/>
</g>
</svg>
