<?xml version="1.0" standalone="no"?>
<svg version="1.0" xmlns="http://www.w3.org/2000/svg"
 width="678.000000pt" height="648.000000pt" viewBox="0 0 678.000000 648.000000"
 preserveAspectRatio="xMidYMid meet">
<metadata>
Created by potrace 1.10, written by Peter Selinger 2001-2011
</metadata>
  <defs>
    <linearGradient id="gradient1" x1="0" y1="0" x2="0" y2="1">
      <stop offset="0%" stop-color="#33FFCC"/>  <!-- Bright green-blue -->
      <stop offset="100%" stop-color="#0033CC"/> <!-- Deep blue -->
    </linearGradient>
  </defs>
<g transform="translate(0.000000,648.000000) scale(0.100000,-0.100000)"
fill="url(#gradient1)" stroke="none">
<path d="M2905 5863 c-493 -488 -1149 -1137 -1870 -1847 -481 -474 -625 -621
-625 -638 0 -9 40 -54 90 -99 49 -45 90 -88 90 -94 0 -7 -33 -41 -72 -76 -97
-84 -108 -96 -108 -113 0 -13 231 -245 829 -836 209 -206 1791 -1772 1840
-1821 20 -20 106 -104 192 -187 146 -142 159 -152 194 -152 37 0 54 16 524
483 589 586 894 885 941 923 19 16 37 33 39 38 2 5 29 34 60 64 423 410 1481
1470 1481 1484 0 9 -38 54 -85 99 -47 45 -85 88 -85 95 0 7 38 50 85 95 47 45
85 89 85 98 0 9 -65 81 -144 161 -111 113 -1545 1532 -1792 1775 -28 28 -285
281 -572 564 -287 283 -527 518 -534 522 -9 5 -192 -170 -563 -538z m1191
-158 c340 -335 695 -685 789 -778 921 -905 1555 -1537 1555 -1547 0 -14 -139
-152 -150 -148 -5 1 -409 399 -897 883 -1543 1530 -1924 1905 -1932 1905 -3 0
-193 -185 -421 -411 -228 -227 -734 -727 -1124 -1113 -389 -386 -836 -828
-993 -983 -156 -156 -288 -283 -294 -283 -10 0 -127 121 -142 146 -5 9 15 35
62 81 38 37 268 264 512 503 243 239 645 636 893 881 248 245 510 504 583 575
72 71 306 303 520 516 230 229 395 386 405 385 9 -1 295 -276 634 -612z m-29
-360 c323 -319 725 -716 893 -882 451 -446 1199 -1183 1249 -1231 49 -49 52
-40 -44 -133 -33 -32 -224 -221 -425 -419 -201 -199 -567 -561 -813 -803 -247
-243 -675 -668 -952 -945 -278 -276 -508 -502 -513 -502 -5 0 -26 19 -48 43
-22 23 -431 429 -909 903 -1322 1309 -1725 1706 -1778 1753 -48 44 -59 73 -32
88 8 5 109 101 223 213 114 113 349 345 523 515 340 334 1655 1636 1872 1852
79 79 139 131 149 130 10 -1 282 -263 605 -582z m-2680 -2941 c406 -403 945
-936 1198 -1185 253 -250 552 -545 665 -657 159 -158 209 -201 222 -195 9 4
268 258 576 563 307 305 720 713 918 907 197 193 575 565 838 827 264 262 484
476 489 476 18 0 147 -134 147 -152 0 -9 -6 -21 -14 -25 -8 -4 -338 -327 -733
-718 -395 -390 -740 -732 -768 -759 -27 -27 -367 -363 -755 -748 -387 -384
-706 -698 -708 -698 -2 0 -70 66 -151 148 -81 81 -318 316 -527 522 -209 206
-782 774 -1274 1261 -492 487 -921 910 -953 939 -89 83 -89 80 -10 160 38 39
75 68 85 67 9 -1 349 -331 755 -733z"/>
<path d="M3355 5557 c-49 -49 -357 -353 -684 -675 -1183 -1168 -1551 -1537
-1551 -1556 0 -10 29 -46 65 -79 36 -33 65 -64 65 -68 0 -5 -29 -36 -65 -71
-36 -34 -65 -70 -65 -79 0 -18 244 -265 767 -776 158 -155 576 -568 928 -917
352 -350 646 -636 654 -636 8 0 175 159 370 354 196 194 624 620 951 946 327
326 691 685 807 798 117 113 215 214 219 225 5 15 -9 33 -60 81 -36 35 -66 69
-66 77 0 8 27 38 59 67 33 28 63 61 66 73 7 20 -243 273 -1220 1230 -619 607
-709 696 -744 733 -20 21 -53 55 -75 75 -21 20 -95 93 -165 163 -85 86 -133
127 -146 126 -11 -1 -60 -42 -110 -91z m812 -653 c762 -755 834 -826 1203
-1184 366 -355 380 -370 380 -388 -1 -14 -91 -122 -103 -122 -1 0 -100 97
-218 216 -117 119 -257 258 -309 309 -113 112 -446 439 -986 970 -218 215
-453 447 -523 518 -69 70 -134 127 -143 127 -9 0 -45 -28 -80 -63 -35 -34
-364 -360 -733 -723 -368 -364 -825 -815 -1014 -1003 -209 -207 -351 -341
-363 -341 -10 0 -21 7 -25 16 -3 9 -21 31 -40 50 -18 18 -33 38 -33 43 0 6 71
80 158 166 375 371 570 563 928 915 210 206 563 554 785 773 261 257 410 397
421 395 9 -2 322 -305 695 -674z m-532 224 c88 -88 175 -175 193 -192 19 -17
150 -146 291 -286 590 -585 1060 -1048 1264 -1245 119 -115 217 -215 217 -223
0 -11 -474 -489 -637 -643 -21 -20 -68 -68 -104 -105 -36 -38 -259 -260 -495
-493 -236 -233 -536 -530 -667 -660 -175 -173 -240 -232 -246 -222 -15 23
-948 954 -1905 1900 l-226 224 112 108 c62 59 203 196 313 305 110 108 425
418 699 688 274 270 614 606 755 747 141 141 261 257 266 258 6 0 82 -72 170
-161z m-2026 -2301 c174 -172 426 -421 561 -554 135 -133 479 -474 765 -757
286 -284 527 -516 535 -516 9 0 23 8 31 18 9 9 450 447 980 972 530 525 1007
998 1061 1052 53 54 101 98 106 98 16 0 102 -90 102 -106 0 -9 -356 -369 -792
-802 -1334 -1325 -1483 -1472 -1494 -1472 -5 0 -42 33 -81 73 -76 77 -2116
2104 -2170 2155 -18 17 -33 35 -33 41 0 12 91 111 103 111 5 0 152 -141 326
-313z"/>
<path d="M3085 3680 c-3 -6 -6 -218 -6 -472 0 -460 0 -463 21 -472 40 -18 43
1 44 245 l1 232 323 2 323 1 6 -25 c3 -13 3 -116 0 -227 -4 -111 -4 -209 -1
-218 7 -17 49 -22 59 -6 10 16 7 932 -3 942 -6 6 -20 8 -33 6 l-24 -3 0 -209
0 -209 -325 0 -325 0 -1 199 c0 110 -3 205 -8 212 -9 15 -42 16 -51 2z"/>
</g>
</svg>
